<mxfile host="app.diagrams.net" modified="2022-05-28T17:23:06.627Z" agent="5.0 (X11)" etag="FY6HmWkJCZGufyJFUP3T" version="18.1.3" type="github">
  <diagram id="mdlvhwlsGfphD7UWirSD" name="Page-1">
    <mxGraphModel dx="1350" dy="793" grid="1" gridSize="10" guides="1" tooltips="1" connect="1" arrows="1" fold="1" page="1" pageScale="1" pageWidth="850" pageHeight="1100" math="0" shadow="0">
      <root>
        <mxCell id="0" />
        <mxCell id="1" parent="0" />
        <mxCell id="MM1RampYLHHO8mUsuj5Q-1" value="users" style="swimlane;childLayout=stackLayout;horizontal=1;startSize=30;horizontalStack=0;rounded=1;fontSize=14;fontStyle=0;strokeWidth=2;resizeParent=0;resizeLast=1;shadow=0;dashed=0;align=center;" vertex="1" parent="1">
          <mxGeometry x="40" y="40" width="280" height="130" as="geometry" />
        </mxCell>
        <mxCell id="MM1RampYLHHO8mUsuj5Q-2" value="+id int primary key auto_increment&#xa;+name varchar(255) not null&#xa;+email varchar(100) not null unique&#xa;+password varchar(255) not null&#xa;+created_at timestamp default current_timestamp&#xa;+role tinyint(1)&#xa;" style="align=left;strokeColor=none;fillColor=none;spacingLeft=4;fontSize=12;verticalAlign=top;resizable=0;rotatable=0;part=1;" vertex="1" parent="MM1RampYLHHO8mUsuj5Q-1">
          <mxGeometry y="30" width="280" height="100" as="geometry" />
        </mxCell>
        <mxCell id="MM1RampYLHHO8mUsuj5Q-6" value="posts" style="swimlane;childLayout=stackLayout;horizontal=1;startSize=30;horizontalStack=0;rounded=1;fontSize=14;fontStyle=0;strokeWidth=2;resizeParent=0;resizeLast=1;shadow=0;dashed=0;align=center;" vertex="1" parent="1">
          <mxGeometry x="420" y="40" width="280" height="130" as="geometry" />
        </mxCell>
        <mxCell id="MM1RampYLHHO8mUsuj5Q-7" value="+id int primary key auto_increment&#xa;+title varchar(255) &#xa;+content varchar(255) &#xa;+image varchar(255)&#xa;+created_at timestamp default current_timestamp&#xa;+author_id int&#xa;" style="align=left;strokeColor=none;fillColor=none;spacingLeft=4;fontSize=12;verticalAlign=top;resizable=0;rotatable=0;part=1;" vertex="1" parent="MM1RampYLHHO8mUsuj5Q-6">
          <mxGeometry y="30" width="280" height="100" as="geometry" />
        </mxCell>
        <mxCell id="MM1RampYLHHO8mUsuj5Q-8" style="edgeStyle=orthogonalEdgeStyle;rounded=0;orthogonalLoop=1;jettySize=auto;html=1;entryX=0;entryY=0.5;entryDx=0;entryDy=0;" edge="1" parent="1" source="MM1RampYLHHO8mUsuj5Q-2" target="MM1RampYLHHO8mUsuj5Q-7">
          <mxGeometry relative="1" as="geometry">
            <mxPoint x="410" y="120" as="targetPoint" />
            <Array as="points" />
          </mxGeometry>
        </mxCell>
        <mxCell id="MM1RampYLHHO8mUsuj5Q-9" value="comments" style="swimlane;childLayout=stackLayout;horizontal=1;startSize=30;horizontalStack=0;rounded=1;fontSize=14;fontStyle=0;strokeWidth=2;resizeParent=0;resizeLast=1;shadow=0;dashed=0;align=center;" vertex="1" parent="1">
          <mxGeometry x="420" y="290" width="280" height="130" as="geometry" />
        </mxCell>
        <mxCell id="MM1RampYLHHO8mUsuj5Q-10" value="+id int primary key auto_increment &#xa;+content varchar(255)+post_id int&#xa;+author_id int&#xa;+created_at timestamp default current_timestamp&#xa;" style="align=left;strokeColor=none;fillColor=none;spacingLeft=4;fontSize=12;verticalAlign=top;resizable=0;rotatable=0;part=1;" vertex="1" parent="MM1RampYLHHO8mUsuj5Q-9">
          <mxGeometry y="30" width="280" height="100" as="geometry" />
        </mxCell>
        <mxCell id="MM1RampYLHHO8mUsuj5Q-11" style="edgeStyle=orthogonalEdgeStyle;rounded=0;orthogonalLoop=1;jettySize=auto;html=1;entryX=0.5;entryY=0;entryDx=0;entryDy=0;" edge="1" parent="1" source="MM1RampYLHHO8mUsuj5Q-7" target="MM1RampYLHHO8mUsuj5Q-9">
          <mxGeometry relative="1" as="geometry" />
        </mxCell>
      </root>
    </mxGraphModel>
  </diagram>
</mxfile>
